<svg class="icon" viewBox="0 0 1024 1024" xmlns="http://www.w3.org/2000/svg" width="512" height="512"><path d="M626.57 198.4H396.09c-.6 0-1.1-.49-1.1-1.1V99.77c0-.6.49-1.1 1.1-1.1h230.49c.6 0 1.1.49 1.1 1.1v97.53c-.01.6-.5 1.1-1.11 1.1z"/><path d="M748.35 162.87h-90.58c-1.34 32.76-28.36 59.2-61.45 59.2h-170c-33.07 0-60.1-26.44-61.45-59.2h-90.56c-50.08 0-91.04 40.97-91.04 91.04v515.96c0 50.07 40.96 91.04 91.04 91.04h474.04c50.08 0 91.04-40.97 91.04-91.04V253.91c0-50.08-40.96-91.04-91.04-91.04zM682.1 672.79H340.56c-12.58 0-22.76-10.18-22.76-22.76s10.18-22.76 22.76-22.76H682.1c12.58 0 22.76 10.18 22.76 22.76s-10.18 22.76-22.76 22.76zm0-138.75H340.56c-12.58 0-22.76-10.18-22.76-22.76s10.18-22.76 22.76-22.76H682.1c12.58 0 22.76 10.18 22.76 22.76s-10.18 22.76-22.76 22.76zm0-138.74H340.56c-12.58 0-22.76-10.18-22.76-22.76 0-12.58 10.18-22.76 22.76-22.76H682.1c12.58 0 22.76 10.18 22.76 22.76 0 12.58-10.18 22.76-22.76 22.76z"/></svg>