<svg class="icon" viewBox="0 0 1024 1024" xmlns="http://www.w3.org/2000/svg" width="256" height="256"><path d="M475.7 112v363.7H112V112h363.7zm0 436.3V912H112V548.3h363.7zM184.6 402.8h218.2V184.6H184.6v218.2zm0 436h218.2V621.2H184.6v217.6zm145.5-581.3v72.7h-72.6v-72.7h72.6zm0 436.4v72.7h-72.6v-72.7h72.6zM912 112v363.7H548.3V112H912zm0 436.3v218.2H693.8v-72.7h-72.7V912h-72.7V548.3h218.3V621h72.7v-72.7H912zM621.2 402.8h218.2V184.6H621.2v218.2zm145.3-145.3v72.7h-72.7v-72.7h72.7zm0 581.9V912h-72.7v-72.7l72.7.1zm145.5 0V912h-72.7v-72.7l72.7.1z"/></svg>